<svg width="19" height="19" viewBox="0 0 19 19" fill="none" xmlns="http://www.w3.org/2000/svg">
<path d="M9.4987 3.16659C12.9907 3.16659 15.832 6.00788 15.832 9.49992C15.832 12.992 12.9907 15.8333 9.4987 15.8333C6.00666 15.8333 3.16536 12.992 3.16536 9.49992C3.16536 6.00788 6.00666 3.16659 9.4987 3.16659ZM9.4987 1.58325C5.12632 1.58325 1.58203 5.12754 1.58203 9.49992C1.58203 13.8723 5.12632 17.4166 9.4987 17.4166C13.8711 17.4166 17.4154 13.8723 17.4154 9.49992C17.4154 5.12754 13.8711 1.58325 9.4987 1.58325ZM13.457 8.70825H10.2904V5.54158H8.70703V8.70825H5.54036V10.2916H8.70703V13.4583H10.2904V10.2916H13.457V8.70825Z" fill="#212729"/>
</svg>
